<svg xmlns="http://www.w3.org/2000/svg" xml:space="preserve" id="livestreaming" x="0" y="0" version="1.1" viewBox="0 0 128 128" enable-background="new 0 0 128 128"><path d="M64,48c-8.82,0-16,7.18-16,16s7.18,16,16,16s16-7.18,16-16S72.82,48,64,48z M64,72c-4.41,0-8-3.59-8-8s3.59-8,8-8  s8,3.59,8,8S68.41,72,64,72z M30.83,97.17c1.56,1.56,1.56,4.09,0,5.66c-0.78,0.78-1.8,1.17-2.83,1.17s-2.05-0.39-2.83-1.17  C14.8,92.46,9.09,78.67,9.09,64s5.71-28.46,16.08-38.83c1.56-1.56,4.1-1.56,5.66,0c1.56,1.56,1.56,4.09,0,5.66  C12.54,49.12,12.54,78.88,30.83,97.17z M44.83,44.83c-10.57,10.57-10.57,27.77,0,38.34c1.56,1.56,1.56,4.09,0,5.66  C44.05,89.61,43.02,90,42,90s-2.05-0.39-2.83-1.17c-13.69-13.69-13.69-35.97,0-49.66c1.56-1.56,4.1-1.56,5.66,0  C46.39,40.73,46.39,43.27,44.83,44.83z M118.91,64c0,14.67-5.71,28.46-16.08,38.83c-0.78,0.78-1.8,1.17-2.83,1.17  s-2.05-0.39-2.83-1.17c-1.56-1.56-1.56-4.09,0-5.66c18.29-18.29,18.29-48.05,0-66.34c-1.56-1.56-1.56-4.09,0-5.66  c1.56-1.56,4.1-1.56,5.66,0C113.2,35.54,118.91,49.33,118.91,64z M88.83,88.83C88.05,89.61,87.02,90,86,90s-2.05-0.39-2.83-1.17  c-1.56-1.56-1.56-4.09,0-5.66c10.57-10.57,10.57-27.77,0-38.34c-1.56-1.56-1.56-4.09,0-5.66c1.56-1.56,4.1-1.56,5.66,0  C102.52,52.86,102.52,75.14,88.83,88.83z" fill="#ee4d4d" class="svgShape color000000-0"></path></svg>